<?xml version="1.0" encoding="UTF-8"?>
<svg width="314px" height="165px" viewBox="0 0 314 165" version="1.1" xmlns="http://www.w3.org/2000/svg" xmlns:xlink="http://www.w3.org/1999/xlink">
    <!-- Generator: Sketch 52.6 (67491) - http://www.bohemiancoding.com/sketch -->
    <title>Group</title>
    <desc>Created with Sketch.</desc>
    <g id="Page-1" stroke="none" stroke-width="1" fill="none" fill-rule="evenodd">
        <g id="logo-variations" transform="translate(-85.000000, -1109.000000)">
            <g id="Logo-Copy-4" transform="translate(85.000000, 1111.000000)">
                <g id="Group">
                    <g id="polygons" transform="translate(2.000000, 0.000000)" stroke="#FFFFFF" stroke-width="4">
                        <polygon id="Polygon-lime" points="58.36 0.5 242.96 42 309 78.2498004 309 111.941903 224.32 151 74.28 160.5 0 111.941903 0 78.2498004"></polygon>
                    </g>
                    <g id="|-Hot-Potatoes-|-2" transform="translate(0.000000, 78.000000)" fill="#FFFFFF">
                        <path d="M0.2,34.6 L0.2,0.52 L4.48,0.52 L4.48,34.6 L0.2,34.6 Z M43.36,30 L43.36,1.6 L49,1.6 L49,13.88 L60.64,13.88 L60.64,1.6 L66.28,1.6 L66.28,30 L60.64,30 L60.64,18.92 L49,18.92 L49,30 L43.36,30 Z M81.36,30.32 C78.293318,30.32 75.8000096,29.3733428 73.88,27.48 C71.9599904,25.5866572 71,23.173348 71,20.24 C71,17.306652 71.9599904,14.8933428 73.88,13 C75.8000096,11.1066572 78.293318,10.16 81.36,10.16 C84.4000152,10.16 86.8933236,11.093324 88.84,12.96 C90.7866764,14.826676 91.76,17.2533184 91.76,20.24 C91.76,23.2266816 90.7866764,25.653324 88.84,27.52 C86.8933236,29.386676 84.4000152,30.32 81.36,30.32 Z M81.36,25.64 C82.8000072,25.64 84.0066618,25.1333384 84.98,24.12 C85.9533382,23.1066616 86.44,21.8133412 86.44,20.24 C86.44,18.639992 85.9600048,17.340005 85,16.34 C84.0399952,15.339995 82.826674,14.84 81.36,14.84 C79.8666592,14.84 78.6466714,15.3533282 77.7,16.38 C76.7533286,17.4066718 76.28,18.6933256 76.28,20.24 C76.28,21.7600076 76.7599952,23.0399948 77.72,24.08 C78.6800048,25.1200052 79.893326,25.64 81.36,25.64 Z M101.92,30.32 C100.186658,30.32 98.8266716,29.7733388 97.84,28.68 C96.8533284,27.5866612 96.36,25.973344 96.36,23.84 L96.36,14.8 L94.04,14.8 L94.04,10.48 L96.36,10.48 L96.36,4.08 L101.56,3.52 L101.56,10.48 L106.88,10.48 L106.88,14.8 L101.56,14.8 L101.56,23.12 C101.56,24.7733416 102.133328,25.6 103.28,25.6 C104.02667,25.6 104.853329,25.3733356 105.76,24.92 L107.12,29.12 C105.626659,29.920004 103.893343,30.32 101.92,30.32 Z M121.76,30 L121.76,1.6 L132.28,1.6 C135.586683,1.6 138.059992,2.4599914 139.7,4.18 C141.340008,5.9000086 142.16,8.1866524 142.16,11.04 C142.16,14.0800152 141.233343,16.3799922 139.38,17.94 C137.526657,19.5000078 134.986683,20.28 131.76,20.28 L127.32,20.28 L127.32,30 L121.76,30 Z M127.32,15.28 L131.04,15.28 C132.773342,15.28 134.086662,14.8933372 134.98,14.12 C135.873338,13.3466628 136.32,12.2800068 136.32,10.92 C136.32,9.58666 135.880004,8.5333372 135,7.76 C134.119996,6.9866628 132.880008,6.6 131.28,6.6 L127.32,6.6 L127.32,15.28 Z M155.28,30.32 C152.213318,30.32 149.72001,29.3733428 147.8,27.48 C145.87999,25.5866572 144.92,23.173348 144.92,20.24 C144.92,17.306652 145.87999,14.8933428 147.8,13 C149.72001,11.1066572 152.213318,10.16 155.28,10.16 C158.320015,10.16 160.813324,11.093324 162.76,12.96 C164.706676,14.826676 165.68,17.2533184 165.68,20.24 C165.68,23.2266816 164.706676,25.653324 162.76,27.52 C160.813324,29.386676 158.320015,30.32 155.28,30.32 Z M155.28,25.64 C156.720007,25.64 157.926662,25.1333384 158.9,24.12 C159.873338,23.1066616 160.36,21.8133412 160.36,20.24 C160.36,18.639992 159.880005,17.340005 158.92,16.34 C157.959995,15.339995 156.746674,14.84 155.28,14.84 C153.786659,14.84 152.566671,15.3533282 151.62,16.38 C150.673329,17.4066718 150.2,18.6933256 150.2,20.24 C150.2,21.7600076 150.679995,23.0399948 151.64,24.08 C152.600005,25.1200052 153.813326,25.64 155.28,25.64 Z M175.84,30.32 C174.106658,30.32 172.746672,29.7733388 171.76,28.68 C170.773328,27.5866612 170.28,25.973344 170.28,23.84 L170.28,14.8 L167.96,14.8 L167.96,10.48 L170.28,10.48 L170.28,4.08 L175.48,3.52 L175.48,10.48 L180.8,10.48 L180.8,14.8 L175.48,14.8 L175.48,23.12 C175.48,24.7733416 176.053328,25.6 177.2,25.6 C177.94667,25.6 178.773329,25.3733356 179.68,24.92 L181.04,29.12 C179.546659,29.920004 177.813343,30.32 175.84,30.32 Z M197.8,10.48 L203,10.48 L203,30 L198.04,30 L198.04,27.64 L197.92,27.64 C196.559993,29.4266756 194.613346,30.32 192.08,30.32 C189.359986,30.32 187.126675,29.3933426 185.38,27.54 C183.633325,25.6866574 182.76,23.2666816 182.76,20.28 C182.76,17.346652 183.633325,14.9266762 185.38,13.02 C187.126675,11.1133238 189.319987,10.16 191.96,10.16 C194.386679,10.16 196.293326,10.9999916 197.68,12.68 L197.8,12.68 L197.8,10.48 Z M193.04,25.64 C194.426674,25.64 195.599995,25.1466716 196.56,24.16 C197.520005,23.1733284 198,21.8933412 198,20.32 C198,18.7466588 197.533338,17.4400052 196.6,16.4 C195.666662,15.3599948 194.49334,14.84 193.08,14.84 C191.639993,14.84 190.440005,15.339995 189.48,16.34 C188.519995,17.340005 188.04,18.6666584 188.04,20.32 C188.04,21.8933412 188.506662,23.1733284 189.44,24.16 C190.373338,25.1466716 191.573326,25.64 193.04,25.64 Z M214.2,30.32 C212.466658,30.32 211.106672,29.7733388 210.12,28.68 C209.133328,27.5866612 208.64,25.973344 208.64,23.84 L208.64,14.8 L206.32,14.8 L206.32,10.48 L208.64,10.48 L208.64,4.08 L213.84,3.52 L213.84,10.48 L219.16,10.48 L219.16,14.8 L213.84,14.8 L213.84,23.12 C213.84,24.7733416 214.413328,25.6 215.56,25.6 C216.30667,25.6 217.133329,25.3733356 218.04,24.92 L219.4,29.12 C217.906659,29.920004 216.173343,30.32 214.2,30.32 Z M231.4,30.32 C228.333318,30.32 225.84001,29.3733428 223.92,27.48 C221.99999,25.5866572 221.04,23.173348 221.04,20.24 C221.04,17.306652 221.99999,14.8933428 223.92,13 C225.84001,11.1066572 228.333318,10.16 231.4,10.16 C234.440015,10.16 236.933324,11.093324 238.88,12.96 C240.826676,14.826676 241.8,17.2533184 241.8,20.24 C241.8,23.2266816 240.826676,25.653324 238.88,27.52 C236.933324,29.386676 234.440015,30.32 231.4,30.32 Z M231.4,25.64 C232.840007,25.64 234.046662,25.1333384 235.02,24.12 C235.993338,23.1066616 236.48,21.8133412 236.48,20.24 C236.48,18.639992 236.000005,17.340005 235.04,16.34 C234.079995,15.339995 232.866674,14.84 231.4,14.84 C229.906659,14.84 228.686671,15.3533282 227.74,16.38 C226.793329,17.4066718 226.32,18.6933256 226.32,20.24 C226.32,21.7600076 226.799995,23.0399948 227.76,24.08 C228.720005,25.1200052 229.933326,25.64 231.4,25.64 Z M264.2,20.04 C264.2,21.0800052 264.16,21.7066656 264.08,21.92 L250.36,21.92 C250.680002,23.0933392 251.279996,24.01333 252.16,24.68 C253.040004,25.34667 254.10666,25.68 255.36,25.68 C257.253343,25.7066668 258.813327,24.9733408 260.04,23.48 L263.44,26.64 C261.493324,29.0933456 258.680018,30.32 255,30.32 C252.093319,30.32 249.693343,29.386676 247.8,27.52 C245.906657,25.653324 244.96,23.2133484 244.96,20.2 C244.96,17.266652 245.873324,14.8600094 247.7,12.98 C249.526676,11.0999906 251.839986,10.16 254.64,10.16 C257.466681,10.16 259.766658,11.0866574 261.54,12.94 C263.313342,14.7933426 264.2,17.1599856 264.2,20.04 Z M254.8,14.76 C253.706661,14.76 252.773337,15.0533304 252,15.64 C251.226663,16.2266696 250.693335,17.0666612 250.4,18.16 L259,18.16 C258.41333,15.893322 257.013344,14.76 254.8,14.76 Z M274.72,30.32 C271.653318,30.32 269.013344,29.3733428 266.8,27.48 L269.36,23.84 C270.960008,25.3600076 272.75999,26.12 274.76,26.12 C275.50667,26.12 276.093331,25.9733348 276.52,25.68 C276.946669,25.3866652 277.16,25.0000024 277.16,24.52 C277.16,24.0933312 276.906669,23.7333348 276.4,23.44 C275.893331,23.1466652 274.960007,22.7866688 273.6,22.36 C271.706657,21.7199968 270.233339,20.9266714 269.18,19.98 C268.126661,19.0333286 267.6,17.7066752 267.6,16 C267.6,14.266658 268.26666,12.8600054 269.6,11.78 C270.93334,10.6999946 272.613323,10.16 274.64,10.16 C277.30668,10.16 279.67999,10.9733252 281.76,12.6 L279.24,16.44 C277.773326,15.0533264 276.213342,14.36 274.56,14.36 C274.079998,14.36 273.640002,14.4866654 273.24,14.74 C272.839998,14.9933346 272.64,15.3599976 272.64,15.84 C272.64,16.2133352 272.873331,16.5533318 273.34,16.86 C273.806669,17.1666682 274.559995,17.519998 275.6,17.92 C276.666672,18.320002 277.453331,18.619999 277.96,18.82 C278.466669,19.020001 279.066663,19.3133314 279.76,19.7 C280.453337,20.0866686 280.939999,20.4599982 281.22,20.82 C281.500001,21.1800018 281.753332,21.6533304 281.98,22.24 C282.206668,22.8266696 282.32,23.4933296 282.32,24.24 C282.32,26.0533424 281.67334,27.5199944 280.38,28.64 C279.08666,29.7600056 277.200012,30.32 274.72,30.32 Z M308.92,34.6 L308.92,0.52 L313.2,0.52 L313.2,34.6 L308.92,34.6 Z" id="|-Hot-Potatoes-|"></path>
                    </g>
                </g>
            </g>
        </g>
    </g>
</svg>